<svg width="125" height="70" viewBox="0 0 125 70" fill="none" xmlns="http://www.w3.org/2000/svg">
<path d="M11.8506 29.0239C8.38745 29.0239 6.65584 28.7324 6.65584 28.1494C6.65584 27.8214 6.92641 27.6575 7.46753 27.6575H8.33333C8.47763 27.6939 8.62193 27.7121 8.76623 27.7121C8.94661 27.7121 9.12698 27.7121 9.30736 27.7121C12.9509 27.7121 16.342 27.1473 19.4805 26.0177C22.6912 24.8516 25.3247 23.4305 27.381 21.7543C29.4733 20.0052 31.1147 18.1468 32.3052 16.1791C33.5317 14.1749 34.145 12.2801 34.145 10.4945C34.145 7.6887 33.0447 5.4659 30.8442 3.82613C29.5815 2.87871 28.2287 2.2228 26.7857 1.85841C25.3788 1.49401 23.8997 1.31182 22.3485 1.31182H21.9697C19.5166 1.31182 16.5404 1.74909 13.0411 2.62363C9.57792 3.49818 5.60967 4.77356 1.13636 6.44977C0.378788 6.44977 0 5.88496 0 4.75533C0 4.39094 0.162338 4.13587 0.487013 3.99011C0.667388 3.91723 0.974026 3.80791 1.40693 3.66216C1.83983 3.47996 2.56133 3.2431 3.57143 2.95159C6.81818 1.96772 9.93867 1.23894 12.9329 0.765226C15.9271 0.255075 18.741 0 21.3745 0C25.5952 0 29.0945 1.0203 31.8723 3.06091C34.614 5.06507 35.9848 7.7798 35.9848 11.2051C35.9848 13.2821 35.3896 15.3774 34.1991 17.4909C33.0447 19.6044 31.4394 21.5174 29.3831 23.2301C27.3268 24.9792 24.7655 26.3639 21.6991 27.3842C18.6328 28.4774 15.3499 29.0239 11.8506 29.0239ZM5.46537 31.5383C4.88817 31.5383 4.41919 31.1921 4.05844 30.4997C3.69769 29.8438 3.51732 28.8782 3.51732 27.6028C3.51732 23.1208 6.04257 16.3795 11.0931 7.37897C11.0931 7.23321 11.2734 6.8506 11.6342 6.23113C12.031 5.61166 12.3557 5.06507 12.6082 4.59136C13.0772 3.68037 13.5101 3.22488 13.9069 3.22488C14.3038 3.22488 14.7547 3.3342 15.2597 3.55284C15.7648 3.73503 16.0173 3.93545 16.0173 4.15409C15.5483 4.95575 15.0613 5.75742 14.5563 6.55908C14.0873 7.36075 13.6003 8.16241 13.0952 8.96408C7.57576 18.6205 4.81602 25.216 4.81602 28.7507C4.81602 29.1879 4.94228 29.7163 5.19481 30.3358C5.44733 30.9552 5.57359 31.3378 5.57359 31.4836L5.46537 31.5383Z" fill="white"/>
<path d="M40.7649 28.1494C37.6986 28.1494 36.1654 26.71 36.1654 23.8313C36.1654 21.6085 37.2476 18.912 39.4121 15.7418C41.6488 12.5716 43.7772 10.9865 45.7974 10.9865C46.6632 10.9865 47.4208 11.278 48.0701 11.861C48.7556 12.4076 49.0983 13.0817 49.0983 13.8834C49.0983 15.2316 48.2505 16.5981 46.555 17.9828C44.8955 19.3311 43.2541 20.0052 41.6307 20.0052C41.3061 20.0052 41.1437 19.9323 41.1437 19.7866L41.3061 19.5133C45.4547 18.2015 47.529 16.0515 47.529 13.0635C47.529 12.6262 47.3847 12.4076 47.0961 12.4076C46.6993 12.4076 45.9778 12.8267 44.9316 13.6648C44.0297 14.3935 43.182 15.2316 42.3883 16.1791C41.6307 17.1265 40.9453 18.1104 40.332 19.1307C39.0333 21.3535 38.384 23.2119 38.384 24.7059C38.384 26.1635 38.9431 26.8922 40.0615 26.8922C41.3602 26.8922 42.7851 26.2181 44.3364 24.8699C44.8414 24.3961 45.3825 23.8678 45.9597 23.2847C46.5369 22.6653 47.1682 21.9912 47.8537 21.2624C49.1884 19.8048 49.8919 19.076 49.9641 19.076C50.1805 19.076 50.2887 19.1671 50.2887 19.3493C50.2887 19.4951 50.2527 19.6408 50.1805 19.7866C46.3926 25.3618 43.2541 28.1494 40.7649 28.1494Z" fill="white"/>
<path d="M51.6631 27.6575C51.3024 27.6575 50.9596 27.5664 50.635 27.3842C50.3103 27.1655 50.1299 26.9469 50.0938 26.7283C50.0938 26.1088 50.6891 23.9224 51.8796 20.1692C53.07 16.3795 53.6653 13.5372 53.6653 11.6424C53.6653 11.0958 53.539 10.786 53.2865 10.7132C53.034 10.6039 52.7814 10.5674 52.5289 10.6039C52.2764 10.6039 52.1501 10.5128 52.1501 10.3306C52.1501 10.0026 52.4207 9.83863 52.9618 9.83863C55.3788 9.83863 56.5874 10.8407 56.5874 12.8449C56.5874 13.5737 55.7216 16.5435 53.99 21.7543C54.7836 20.4789 55.5592 19.3129 56.3168 18.2561C57.1104 17.1629 57.868 16.1609 58.5895 15.2499C60.0686 13.4279 61.0607 12.5169 61.5657 12.5169C61.5657 12.5169 61.5657 12.5351 61.5657 12.5716C61.6018 12.5716 61.6198 12.5898 61.6198 12.6262C61.6198 12.6627 61.5838 12.7538 61.5116 12.8995C61.4755 13.0088 61.3673 13.1728 61.1869 13.3915C57.2908 18.1286 54.5852 22.2098 53.07 25.6351L52.583 27.0562C52.4387 27.4571 52.1321 27.6575 51.6631 27.6575ZM62.8644 28.2587C61.8182 28.2587 60.9885 27.7668 60.3752 26.7829C59.798 25.8719 59.5094 24.5055 59.5094 22.6835C59.5094 20.9344 59.9784 18.5841 60.9164 15.6325C61.8543 12.6809 62.7562 11.2051 63.622 11.2051H63.8926C65.083 11.2051 65.7143 11.442 65.7865 11.9157C65.7143 11.8428 65.6242 11.9521 65.5159 12.2436C65.0109 13.1546 64.5239 14.1749 64.0549 15.3045C63.622 16.4341 63.2071 17.6549 62.8103 18.9667C62.0167 21.5174 61.6198 23.2301 61.6198 24.1046C61.6198 26.3274 62.0167 27.4388 62.8103 27.4388C63.0268 27.4388 63.3334 27.2749 63.7302 26.9469C64.1631 26.6189 64.3615 26.4368 64.3255 26.4003C64.4337 26.4003 64.4878 26.5461 64.4878 26.8376C64.4878 27.785 63.9467 28.2587 62.8644 28.2587Z" fill="white"/>
<path d="M73.6159 8.47215C72.8222 8.47215 72.1729 8.25351 71.6678 7.81624C72.3533 7.34253 73.0748 6.72306 73.8324 5.95783C74.626 5.19261 75.4377 4.28162 76.2674 3.22488C76.3396 3.22488 76.3756 3.31598 76.3756 3.49818L76.1051 5.08329C75.9247 6.21291 75.6 7.06923 75.1311 7.65226C74.6621 8.19885 74.157 8.47215 73.6159 8.47215ZM68.4211 28.368C67.0502 28.368 66.3648 27.366 66.3648 25.3618C66.3648 22.3373 67.4471 18.3472 69.6116 13.3915C69.6116 13.2457 69.7018 12.9724 69.8821 12.5716C70.0986 12.1707 70.2609 11.9157 70.3691 11.8064C70.6217 11.5513 70.9644 11.4237 71.3973 11.4237C72.6599 11.4237 73.3453 11.6788 73.4536 12.189C72.8764 13.1364 72.3172 14.2296 71.7761 15.4685C71.271 16.7074 70.766 18.0739 70.2609 19.5679C69.7198 21.1713 69.323 22.5013 69.0704 23.558C68.854 24.5783 68.7458 25.3982 68.7458 26.0177C68.7458 26.9287 68.9803 27.3842 69.4492 27.3842C69.7739 27.3842 70.1888 27.1838 70.6938 26.7829C71.0907 26.455 71.3612 26.2181 71.5055 26.0724C71.6859 25.9266 71.8482 25.7991 71.9925 25.6897C72.1368 25.6897 72.209 25.7626 72.209 25.9084C72.209 26.3092 71.6859 26.8194 70.6397 27.4388C69.5935 28.0583 68.854 28.368 68.4211 28.368Z" fill="white"/>
<path d="M88.6102 30.0625C88.5019 30.0625 88.4478 29.9896 88.4478 29.8438C88.8807 28.5685 89.0972 27.8761 89.0972 27.7668C89.0972 26.4914 87.2032 25.8537 83.4153 25.8537C79.5553 25.8537 76.0019 26.5825 72.7552 28.0401C72.6109 28.0401 72.5387 27.8032 72.5387 27.3295C72.5387 27.1473 72.5748 26.9105 72.6469 26.6189C72.7552 26.3274 72.8995 26.0906 73.0798 25.9084L73.134 25.8537C73.639 25.7808 74.0178 25.5622 74.2703 25.1978C74.2703 24.6148 76.7415 22.6471 81.6837 19.2946C86.6621 15.8693 89.1693 14.0474 89.2054 13.8287C88.7003 13.2093 88.033 12.8995 87.2032 12.8995C86.8064 12.8995 86.1751 12.9906 85.3093 13.1728C84.4435 13.3186 83.3432 13.5372 82.0084 13.8287C80.6736 14.1202 79.6275 14.3389 78.8699 14.4846C78.1123 14.6304 77.6253 14.7033 77.4089 14.7033C76.976 14.7033 76.7595 14.3389 76.7595 13.6101C76.7595 12.8084 76.976 12.2254 77.4089 11.861C77.5892 12.0432 77.7335 12.1343 77.8418 12.1343L86.2833 11.3144C87.3295 11.3144 88.2133 11.7153 88.9348 12.5169C89.6563 13.2821 90.0171 14.3389 90.0171 15.6871C90.0171 15.8693 88.9709 16.7074 86.8785 18.2015L77.7876 24.7059C79.3028 24.305 81.9002 24.1046 85.5798 24.1046C88.3215 24.1046 89.6924 25.38 89.6924 27.9308C89.6924 29.3519 89.3317 30.0625 88.6102 30.0625Z" fill="white"/>
<path d="M49.026 70C47.7994 70 46.7713 69.7267 45.9416 69.1801C45.1118 68.6335 44.697 67.9047 44.697 66.9938C44.697 63.4227 47.9257 59.5237 54.3831 55.2967C59.1089 52.1629 63.9971 49.7397 69.0476 48.0271C69.1919 48.0271 69.3001 48.0088 69.3723 47.9724C69.4805 47.8995 69.5346 47.9177 69.5346 48.0271C69.5346 48.2093 69.2641 48.4461 68.7229 48.7376C53.4993 56.9001 45.8874 63.0219 45.8874 67.1031C45.8874 68.5971 46.6089 69.3441 48.0519 69.3441C50.1443 69.3441 52.6154 68.3602 55.4654 66.3925C57.9185 64.6799 60.2453 62.785 62.4459 60.708C64.6465 58.5945 66.7388 56.2988 68.7229 53.8209C72.6912 48.7559 74.6753 44.6746 74.6753 41.5773C74.6753 38.7715 72.6912 37.3686 68.7229 37.3686C65.5844 37.3686 61.3997 38.4982 56.1688 40.7574C54.2569 41.5955 52.399 42.5429 50.5952 43.5997C48.7915 44.62 47.114 45.6767 45.5628 46.7699C42.3521 49.0656 40.7468 50.8693 40.7468 52.1812C40.7468 52.9464 41.1797 53.6023 42.0455 54.1489C42.0455 54.1489 42.0455 54.1671 42.0455 54.2035C42.0815 54.2035 42.0996 54.2218 42.0996 54.2582C42.0996 54.3675 41.9553 54.4222 41.6667 54.4222C41.3781 54.4222 41.0173 54.1124 40.5844 53.493C40.1515 52.8735 39.9351 52.3087 39.9351 51.7985C39.9351 50.0859 41.6486 47.9906 45.0758 45.5128C48.4307 43.1078 52.381 41.0125 56.9264 39.227C61.3636 37.4414 65.0072 36.5487 67.8571 36.5487C74.062 36.5487 77.1645 38.6439 77.1645 42.8345C77.1645 45.3852 76.1183 48.2639 74.026 51.4706C72.9798 53.0739 71.8254 54.6226 70.5628 56.1166C69.3362 57.6106 67.9834 59.0318 66.5043 60.38C65.0613 61.7283 63.5642 62.9672 62.013 64.0968C60.4618 65.2264 58.8564 66.265 57.197 67.2124C53.9502 69.0708 51.2265 70 49.026 70Z" fill="white"/>
<path d="M75.8797 64.4248C75.1582 64.4248 74.4909 64.0968 73.8776 63.4409C73.3004 62.7486 73.0118 61.874 73.0118 60.8173C73.0118 59.7605 73.6431 58.1208 74.9057 55.898C76.1684 53.7116 77.7196 51.7439 79.5594 49.9948C81.3632 48.2821 82.9144 47.4258 84.2131 47.4258H84.7542C86.089 47.4258 87.2253 47.6991 88.1633 48.2457C89.1012 48.7559 89.5702 49.4482 89.5702 50.3228C89.5702 50.7236 89.4079 50.924 89.0832 50.924C88.975 50.924 88.9209 50.8693 88.9209 50.76C88.3437 49.4118 87.4598 48.7376 86.2694 48.7376C84.2131 48.7376 81.8682 50.4503 79.2347 53.8756C76.6013 57.228 75.2845 59.8152 75.2845 61.6372C75.2845 62.3295 75.4649 62.6757 75.8256 62.6757C77.449 62.6757 80.8581 58.9771 86.0529 51.5799C86.0168 51.6163 86.0349 51.6163 86.107 51.5799C86.2152 51.507 86.3054 51.4706 86.3776 51.4706C86.558 51.4706 86.9367 51.6528 87.5139 52.0172C88.0911 52.3451 88.3798 52.6366 88.3798 52.8917C88.3798 52.8917 88.3076 53.0193 88.1633 53.2743C88.019 53.493 87.8386 53.8391 87.6222 54.3129C87.045 55.5518 86.594 56.7725 86.2694 57.975C85.9808 59.1411 85.8365 60.1614 85.8365 61.0359C85.8365 62.9672 86.3054 63.9328 87.2434 63.9328L87.7845 63.8235L87.8927 63.8782C87.8927 64.2061 87.4418 64.3701 86.5399 64.3701C85.6741 64.3701 84.9526 63.9693 84.3754 63.1676C83.8343 62.3295 83.5637 61.2181 83.5637 59.8334C83.5637 58.4852 83.7982 56.9911 84.2672 55.3514C84.2311 55.4607 84.1049 55.6611 83.8884 55.9526C83.672 56.2441 83.3292 56.7543 82.8603 57.4831C79.9021 62.1109 77.5753 64.4248 75.8797 64.4248Z" fill="white"/>
<path d="M105.52 66.5018C105.412 66.5018 105.358 66.4289 105.358 66.2832C105.791 65.0078 106.007 64.3155 106.007 64.2061C106.007 62.9308 104.113 62.2931 100.326 62.2931C96.4655 62.2931 92.9121 63.0219 89.6653 64.4794C89.521 64.4794 89.4489 64.2426 89.4489 63.7689C89.4489 63.5867 89.485 63.3498 89.5571 63.0583C89.6653 62.7668 89.8096 62.5299 89.99 62.3477L90.0441 62.2931C90.5492 62.2202 90.928 62.0016 91.1805 61.6372C91.1805 61.0541 93.6516 59.0864 98.5939 55.734C103.572 52.3087 106.079 50.4867 106.116 50.2681C105.611 49.6486 104.943 49.3389 104.113 49.3389C103.717 49.3389 103.085 49.43 102.219 49.6122C101.354 49.7579 100.253 49.9766 98.9186 50.2681C97.5838 50.5596 96.5376 50.7782 95.7801 50.924C95.0225 51.0698 94.5355 51.1426 94.319 51.1426C93.8861 51.1426 93.6697 50.7782 93.6697 50.0495C93.6697 49.2478 93.8861 48.6648 94.319 48.3004C94.4994 48.4826 94.6437 48.5737 94.7519 48.5737L103.193 47.7538C104.24 47.7538 105.123 48.1546 105.845 48.9563C106.566 49.7215 106.927 50.7782 106.927 52.1265C106.927 52.3087 105.881 53.1468 103.789 54.6408L94.6978 61.1452C96.213 60.7444 98.8104 60.544 102.49 60.544C105.232 60.544 106.603 61.8194 106.603 64.3701C106.603 65.7913 106.242 66.5018 105.52 66.5018Z" fill="white"/>
<path d="M123.593 66.5018C123.485 66.5018 123.431 66.4289 123.431 66.2832C123.864 65.0078 124.08 64.3155 124.08 64.2061C124.08 62.9308 122.186 62.2931 118.398 62.2931C114.538 62.2931 110.985 63.0219 107.738 64.4794C107.594 64.4794 107.522 64.2426 107.522 63.7689C107.522 63.5867 107.558 63.3498 107.63 63.0583C107.738 62.7668 107.882 62.5299 108.063 62.3477L108.117 62.2931C108.622 62.2202 109.001 62.0016 109.253 61.6372C109.253 61.0541 111.724 59.0864 116.667 55.734C121.645 52.3087 124.152 50.4867 124.188 50.2681C123.683 49.6486 123.016 49.3389 122.186 49.3389C121.789 49.3389 121.158 49.43 120.292 49.6122C119.426 49.7579 118.326 49.9766 116.991 50.2681C115.657 50.5596 114.61 50.7782 113.853 50.924C113.095 51.0698 112.608 51.1426 112.392 51.1426C111.959 51.1426 111.742 50.7782 111.742 50.0495C111.742 49.2478 111.959 48.6648 112.392 48.3004C112.572 48.4826 112.716 48.5737 112.825 48.5737L121.266 47.7538C122.312 47.7538 123.196 48.1546 123.918 48.9563C124.639 49.7215 125 50.7782 125 52.1265C125 52.3087 123.954 53.1468 121.861 54.6408L112.771 61.1452C114.286 60.7444 116.883 60.544 120.563 60.544C123.304 60.544 124.675 61.8194 124.675 64.3701C124.675 65.7913 124.315 66.5018 123.593 66.5018Z" fill="white"/>
</svg>
