<svg width="75" height="46" viewBox="0 0 75 46" fill="none" xmlns="http://www.w3.org/2000/svg">
<path d="M0.858236 0.151192C0.665594 -0.0466561 0.34904 -0.0508769 0.151192 0.141765C-0.0466561 0.334406 -0.0508769 0.650961 0.141765 0.848809L37.5 39.2167L74.8582 0.848809C75.0509 0.650961 75.0467 0.334406 74.8488 0.141765C74.651 -0.0508769 74.3344 -0.0466561 74.1418 0.151192L37.5 37.7833L0.858236 0.151192Z" fill="white"/>
<path d="M0.858236 6.15119C0.665594 5.95334 0.34904 5.94912 0.151192 6.14176C-0.0466561 6.33441 -0.0508769 6.65096 0.141765 6.84881L37.5 45.2167L74.8582 6.84881C75.0509 6.65096 75.0467 6.33441 74.8488 6.14176C74.651 5.94912 74.3344 5.95334 74.1418 6.15119L37.5 43.7833L0.858236 6.15119Z" fill="white"/>
</svg>
